<?xml version="1.0" encoding="UTF-8"?>
<svg version="1.1" xmlns="http://www.w3.org/2000/svg" width="496" height="373">
<path d="M0 0 C1.75631038 -0.01997757 3.5126077 -0.04113529 5.26889038 -0.06341553 C8.94928425 -0.10077107 12.62852129 -0.1098018 16.30908203 -0.1015625 C20.99847323 -0.09527944 25.68119336 -0.1802276 30.36911964 -0.28976822 C33.99856064 -0.36056015 37.62642831 -0.37108972 41.25648117 -0.36534882 C42.98282615 -0.37171168 44.70923597 -0.39873192 46.43489456 -0.44782257 C60.53424914 -0.80879629 60.53424914 -0.80879629 65.98114014 3.93469238 C68.61820014 6.59906254 70.92529 9.45055821 73.12491989 12.48236847 C74.9986108 15.04802909 77.04964185 17.45265635 79.0859375 19.890625 C79.80265625 20.78265625 80.519375 21.6746875 81.2578125 22.59375 C83.22461447 25.00419152 85.25413481 27.32933225 87.3359375 29.640625 C90.98010852 33.69368923 94.41841339 37.88884959 97.8515625 42.12109375 C100.63345625 45.50223191 103.47705705 48.82462993 106.3359375 52.140625 C110.62691879 57.11964295 114.82862547 62.15731435 118.9609375 67.26953125 C120.78606893 69.47589901 122.63557882 71.64123385 124.5234375 73.79296875 C125.07193359 74.42074219 125.62042969 75.04851562 126.18554688 75.6953125 C127.26418615 76.92585482 128.34860389 78.15136221 129.43945312 79.37109375 C131.96516388 82.25762033 133.60792265 84.37497835 134.3359375 88.140625 C128.69790932 93.34610604 122.82901355 98.15911296 116.77294922 102.8605957 C112.70962272 106.02777579 108.74746095 109.28823269 104.8359375 112.640625 C99.72254359 117.02129262 94.49309726 121.22492877 89.16430664 125.34082031 C86.0689686 127.73919191 83.12665178 130.2107079 80.2734375 132.890625 C77.3359375 135.140625 77.3359375 135.140625 75.10546875 135.1640625 C71.00705082 133.64955545 68.27879833 130.93895076 65.0859375 128.015625 C63.75820323 126.82753259 62.42878149 125.64132321 61.09765625 124.45703125 C60.45618652 123.88484863 59.8147168 123.31266602 59.15380859 122.72314453 C56.15627882 120.11369141 52.98933013 117.74668409 49.77734375 115.41015625 C49.30167969 114.99121094 48.82601562 114.57226562 48.3359375 114.140625 C48.3359375 113.480625 48.3359375 112.820625 48.3359375 112.140625 C47.7584375 111.8725 47.1809375 111.604375 46.5859375 111.328125 C44.3033507 110.12342641 42.3621433 108.73264385 40.3359375 107.140625 C40.74910972 102.32028238 42.71613665 100.23069889 46.3359375 97.140625 C46.9959375 97.140625 47.6559375 97.140625 48.3359375 97.140625 C48.3359375 96.480625 48.3359375 95.820625 48.3359375 95.140625 C49.9453125 93.5546875 49.9453125 93.5546875 52.0859375 91.765625 C54.97425413 89.33729954 57.69675898 86.83924448 60.3359375 84.140625 C59.74075317 83.50785645 59.74075317 83.50785645 59.13354492 82.86230469 C55.191257 78.66918009 51.25533195 74.47017298 47.32470703 70.26611328 C46.07191601 68.92719865 44.81786094 67.58946455 43.56201172 66.25341797 C42.02367205 64.61591944 40.49143636 62.97294903 38.9609375 61.328125 C38.08695313 60.39355469 37.21296875 59.45898438 36.3125 58.49609375 C34.3359375 56.140625 34.3359375 56.140625 33.3359375 53.140625 C32.6759375 53.140625 32.0159375 53.140625 31.3359375 53.140625 C29.47957083 51.13664363 27.80097446 49.01937508 26.08984375 46.890625 C24.39492975 44.78746598 24.39492975 44.78746598 21.3359375 45.140625 C19.04324675 47.36671286 19.04324675 47.36671286 16.7734375 50.140625 C15.33434556 51.84201449 13.86310538 53.51782801 12.3359375 55.140625 C11.6759375 55.140625 11.0159375 55.140625 10.3359375 55.140625 C10.3359375 55.800625 10.3359375 56.460625 10.3359375 57.140625 C8.91992188 58.53540039 8.91992188 58.53540039 6.9296875 60.17578125 C1.97012661 64.39293873 -2.58734615 68.95295807 -7.1640625 73.578125 C-8.39769531 74.81852539 -8.39769531 74.81852539 -9.65625 76.08398438 C-11.66118363 78.10057459 -13.66372503 80.11947736 -15.6640625 82.140625 C-12.39725409 86.58911805 -9.11486603 90.90633344 -5.3515625 94.953125 C-2.26636243 98.32532043 0.67228493 101.75623498 3.5234375 105.328125 C8.42998481 111.39879162 13.76794367 117.03131415 19.1171875 122.7109375 C23.06909767 126.90871422 26.85939523 131.22353005 30.59033203 135.61816406 C37.12998087 143.31854947 43.78684967 150.86471416 50.66796875 158.26171875 C54.88101423 162.80786007 58.93193012 167.47870934 62.93359375 172.2109375 C77.01933676 188.83167777 92.27585229 204.21432417 107.7109375 219.578125 C109.62292231 221.48449853 111.53412594 223.39165438 113.4453125 225.29882812 C118.07283244 229.91546322 122.70320999 234.52921595 127.3359375 239.140625 C123.51418138 243.71434445 119.55630762 248.0510945 115.30859375 252.23046875 C114.4805851 253.05279747 114.4805851 253.05279747 113.635849 253.89173889 C111.30868053 256.20279315 108.97553102 258.50777266 106.64282227 260.81323242 C104.92510117 262.51266196 103.2105532 264.21524971 101.49609375 265.91796875 C100.98232681 266.42343735 100.46855988 266.92890594 99.93922424 267.44969177 C97.13776692 270.23266525 94.47778212 273.0902753 91.89331055 276.07666016 C88.49435014 280.00166231 84.92491735 283.71289592 81.2578125 287.38671875 C80.60572815 288.0421315 79.9536438 288.69754425 79.28179932 289.37281799 C77.91166511 290.74797546 76.54020952 292.12181755 75.16748047 293.49438477 C73.09963089 295.56441715 71.03992225 297.64232173 68.98046875 299.72070312 C62.42507755 306.3030607 55.87887124 312.64105098 48.54858398 318.36499023 C45.8277582 320.54843566 43.43300779 322.9567704 41.0078125 325.45703125 C36.05258259 330.44699408 30.61757735 334.79659654 24.90234375 338.87890625 C23.19562104 340.07456911 23.19562104 340.07456911 22.3359375 342.140625 C18.08014368 340.53581492 15.47701704 337.31903788 12.5234375 334.015625 C11.98936279 333.42740967 11.45528809 332.83919434 10.9050293 332.2331543 C7.57678115 328.55727677 4.28762428 324.84756228 1.04296875 321.09765625 C-1.00039681 318.7550335 -3.08087109 316.44789078 -5.1640625 314.140625 C-8.42797098 310.52386155 -11.65197199 306.87672892 -14.8515625 303.203125 C-17.6967554 299.9654917 -20.59260086 296.7737621 -23.48046875 293.57421875 C-25.37254935 291.46551354 -27.24312008 289.34142699 -29.1015625 287.203125 C-31.86190791 284.02840903 -34.69198808 280.92525064 -37.5390625 277.828125 C-40.93939813 274.10787919 -44.19070643 270.31611747 -47.3515625 266.390625 C-49.83512579 263.3111805 -52.3182869 260.38827041 -55.1640625 257.640625 C-58.8729798 254.0596014 -62.01420316 250.08693721 -65.2421875 246.07421875 C-69.20831155 241.27009107 -73.4307358 236.70978972 -77.6640625 232.140625 C-74.35955446 223.92656216 -64.66367148 217.93311149 -57.734375 212.80859375 C-55.18533078 210.75492983 -52.9635496 208.47054649 -50.6640625 206.140625 C-48.47695305 204.0342798 -46.26087585 201.96025935 -44.0390625 199.890625 C-43.18054688 199.07851563 -43.18054688 199.07851563 -42.3046875 198.25 C-39.78320602 195.90443583 -37.96987607 194.24256286 -34.6640625 193.140625 C-22.22950394 206.30549766 -22.22950394 206.30549766 -17.2265625 212.578125 C-12.42078502 218.58312607 -7.15191085 224.11623277 -1.8828125 229.7109375 C1.62537704 233.43738769 5.01396205 237.2475762 8.3359375 241.140625 C9.36302952 242.33745566 10.39040193 243.53404572 11.41796875 244.73046875 C14.39417449 248.19749195 17.36592514 251.66829527 20.3359375 255.140625 C25.2270859 251.07224327 29.80944503 246.79624422 34.2734375 242.265625 C34.86189453 241.67265625 35.45035156 241.0796875 36.05664062 240.46875 C37.48541424 239.02836034 38.91101882 237.5848283 40.3359375 236.140625 C38.77361729 232.46106209 36.50009668 229.97546707 33.7734375 227.078125 C30.39832648 223.45030588 27.17591068 219.76903412 24.0859375 215.890625 C19.20347091 209.83532391 13.88387256 204.2286829 8.5546875 198.5703125 C4.60277733 194.37253578 0.81247977 190.05771995 -2.91845703 185.66308594 C-4.3945219 183.92503109 -5.87243088 182.18857077 -7.3515625 180.453125 C-7.86388428 179.85193848 -8.37620605 179.25075195 -8.90405273 178.63134766 C-12.941299 173.92154042 -17.12418395 169.36688176 -21.36279297 164.83862305 C-25.33249124 160.56985584 -29.00344358 156.101073 -32.65234375 151.5546875 C-34.90310465 148.85377442 -37.32653925 146.4472005 -39.85546875 144.01171875 C-42.09716167 141.69255912 -44.08301721 139.21854298 -46.1015625 136.703125 C-48.81577721 133.32757879 -51.55253886 130.15317373 -54.6640625 127.140625 C-57.65617339 124.23686384 -60.30455688 121.20562032 -62.9140625 117.953125 C-67.32820567 112.45453835 -72.05156169 107.31440538 -76.859375 102.1640625 C-79.73582943 99.07953233 -82.51636085 95.91992325 -85.2578125 92.71484375 C-86.77601492 90.9579163 -86.77601492 90.9579163 -89.1640625 88.890625 C-89.6590625 88.313125 -90.1540625 87.735625 -90.6640625 87.140625 C-90.31302915 83.4776683 -88.6603276 81.83983795 -86.0390625 79.390625 C-81.99412636 75.48836738 -78.3202851 71.40507903 -74.6640625 67.140625 C-73.17704676 65.42291136 -71.68789751 63.70705976 -70.19873047 61.99121094 C-68.51250477 60.04751212 -66.82842163 58.10197212 -65.14453125 56.15625 C-62.8402674 53.49504227 -60.53009943 50.8391491 -58.21484375 48.1875 C-57.0934775 46.90127919 -55.97237929 45.61482464 -54.8515625 44.328125 C-54.04054077 43.39782471 -54.04054077 43.39782471 -53.21313477 42.44873047 C-49.36733405 38.0134965 -45.70324864 33.47702645 -42.15234375 28.80078125 C-41.66121094 28.25292969 -41.17007813 27.70507812 -40.6640625 27.140625 C-40.0040625 27.140625 -39.3440625 27.140625 -38.6640625 27.140625 C-38.39239258 26.55128174 -38.12072266 25.96193848 -37.84082031 25.35473633 C-36.68501418 23.18004632 -35.45934912 21.55740012 -33.8359375 19.71484375 C-33.28292969 19.08255859 -32.72992188 18.45027344 -32.16015625 17.79882812 C-31.58394531 17.14849609 -31.00773437 16.49816406 -30.4140625 15.828125 C-29.28367459 14.54052222 -28.15346546 13.25276245 -27.0234375 11.96484375 C-26.52295898 11.39854248 -26.02248047 10.83224121 -25.50683594 10.2487793 C-23.66356391 8.30441467 -23.66356391 8.30441467 -22.73928833 6.38327026 C-17.84940516 -1.52531509 -8.24174155 0.01011124 0 0 Z " fill="#FCFCFC" transform="translate(228.6640625,8.859375)"/>
<path d="M0 0 C3.67670584 1.51052023 5.71874462 3.6488615 8.3125 6.625 C9.10269531 7.52476563 9.89289063 8.42453125 10.70703125 9.3515625 C11.84205078 10.66253906 11.84205078 10.66253906 13 12 C14.166313 13.33364271 15.33294819 14.66700376 16.5 16 C17.056875 16.639375 17.61375 17.27875 18.1875 17.9375 C20.27211164 20.30964429 22.38428644 22.65556065 24.5 25 C29.29907792 30.32334693 34.0407795 35.68863339 38.6796875 41.15234375 C44.27641881 47.73553596 49.96088982 54.2028394 55.8503418 60.52612305 C58.4461641 63.31356314 61.00975724 66.11783042 63.5 69 C66.63953039 72.6266989 69.87415153 76.16082196 73.125 79.6875 C73.62837891 80.23470703 74.13175781 80.78191406 74.65039062 81.34570312 C77.00389611 83.89145807 79.37136521 86.35871653 81.8671875 88.76953125 C84 91 84 91 84 93 C84.66 93 85.32 93 86 93 C87.4453125 94.46875 87.4453125 94.46875 89.125 96.5 C91.64257902 99.46677361 94.22168976 102.27574249 97 105 C100.30560063 108.25445014 103.36714349 111.65213131 106.390625 115.16796875 C108.49239542 117.56051809 110.71440942 119.78366974 113 122 C112.67 122.99 112.34 123.98 112 125 C104.69724211 125.52783481 97.39408614 126.04976843 90.09039974 126.56460571 C86.69734841 126.80395909 83.30445381 127.04518336 79.91186523 127.29101562 C75.99236328 127.57402258 72.07242293 127.85011787 68.15234375 128.125 C66.96108383 128.21249512 65.76982391 128.29999023 64.54246521 128.39013672 C58.33542026 128.81862685 52.12646134 129.13454173 45.90600586 129.26293945 C44.69545029 129.29370071 43.48489471 129.32446198 42.23765564 129.3561554 C37.61507277 128.84765233 35.45473076 126.91728202 32.44970703 123.51416016 C31.84755371 122.7463623 31.24540039 121.97856445 30.625 121.1875 C29.95710449 120.40938965 29.28920898 119.6312793 28.60107422 118.82958984 C26.68984284 116.58548528 24.83998775 114.30261024 23 112 C22.11721516 110.93401291 21.23217514 109.86988463 20.34375 108.80859375 C18.91450118 107.07990723 17.50040742 105.33852076 16.10546875 103.58203125 C12.26964958 98.87799327 8.12416824 94.45134651 4 90 C0.0213977 91.62761003 -2.80309944 94.39922402 -5.875 97.3125 C-7.90541743 99.22088467 -9.9484771 101.11434214 -12 103 C-12.52110352 103.49677246 -13.04220703 103.99354492 -13.57910156 104.50537109 C-15.1328125 105.91796875 -15.1328125 105.91796875 -18 108 C-21.21676989 107.68339653 -22.77755613 106.57291912 -24.91796875 104.2265625 C-25.44567871 103.65429932 -25.97338867 103.08203613 -26.51708984 102.49243164 C-27.0683252 101.8761792 -27.61956055 101.25992676 -28.1875 100.625 C-28.76193848 99.9952124 -29.33637695 99.3654248 -29.92822266 98.71655273 C-34.13034261 94.07238244 -38.09991826 89.27811298 -42.015625 84.390625 C-44.30136679 81.63693607 -46.755328 79.15418255 -49.32421875 76.66796875 C-51.73448049 74.26894366 -53.93572075 71.70660777 -56.15625 69.1328125 C-58.22850464 66.73567047 -60.33051222 64.36665177 -62.4375 62 C-63.11683594 61.236875 -63.79617188 60.47375 -64.49609375 59.6875 C-64.99238281 59.130625 -65.48867188 58.57375 -66 58 C-64.41909341 53.90313841 -61.4566009 51.40542543 -58.25 48.5625 C-57.48042969 47.86543945 -57.48042969 47.86543945 -56.6953125 47.15429688 C-55.14216208 45.75529078 -53.57469241 44.37469285 -52 43 C-51.45279297 42.51772949 -50.90558594 42.03545898 -50.34179688 41.53857422 C-46.23859634 38 -46.23859634 38 -44 38 C-44 37.34 -44 36.68 -44 36 C-42.19140625 34.328125 -42.19140625 34.328125 -39.5625 32.25 C-38.55960937 31.44820312 -37.55671875 30.64640625 -36.5234375 29.8203125 C-35.96237305 29.37333008 -35.40130859 28.92634766 -34.82324219 28.46582031 C-32.14366228 26.31153566 -29.50053367 24.11400031 -26.85351562 21.91992188 C-20.07618388 16.30372 -13.24590857 10.76908694 -6.28979492 5.37548828 C-4.08344444 3.66131096 -1.97811823 1.97811823 0 0 Z " fill="#FBFBFB" transform="translate(378,116)"/>
<path d="M0 0 C3.59721356 1.4954708 5.63097221 3.52706308 8.1875 6.4375 C8.98027344 7.33984375 9.77304688 8.2421875 10.58984375 9.171875 C13.61253606 12.71876192 16.5533643 16.32644853 19.484375 19.94921875 C22.42924949 23.52056499 25.45716976 27.01214487 28.5 30.5 C32.96878306 35.6244866 37.32762757 40.81576988 41.60546875 46.1015625 C45.15436327 50.39728801 48.81682391 54.59256204 52.484375 58.78710938 C53.52479046 59.97888112 54.56099198 61.17434906 55.59228516 62.37402344 C56.85602826 63.8337059 58.15077825 65.26640669 59.44921875 66.6953125 C61 69 61 69 61.03515625 71.04296875 C59.60565209 73.74554077 57.75383425 75.32151346 55.4375 77.3125 C54.07431641 78.49779297 54.07431641 78.49779297 52.68359375 79.70703125 C51.35521484 80.84205078 51.35521484 80.84205078 50 82 C48.6652767 83.16507622 47.33181377 84.33159897 46 85.5 C45.360625 86.056875 44.72125 86.61375 44.0625 87.1875 C41.69035571 89.27211164 39.34443935 91.38428644 37 93.5 C27.74508234 101.84366423 27.74508234 101.84366423 24 105 C23.34773437 105.58007812 22.69546875 106.16015625 22.0234375 106.7578125 C20 108 20 108 17.953125 107.90625 C15.55326305 106.79271406 14.42306249 105.54665897 12.75 103.5 C12.15574219 102.7884375 11.56148438 102.076875 10.94921875 101.34375 C10.30597656 100.5703125 9.66273438 99.796875 9 99 C7.52676014 97.32809207 6.04768581 95.66130519 4.5625 94 C3.54349609 92.8553125 3.54349609 92.8553125 2.50390625 91.6875 C2.00761719 91.130625 1.51132813 90.57375 1 90 C-4.96953794 94.82643493 -9.95677208 100.22483458 -15 106 C-15.65613281 106.74121094 -16.31226562 107.48242188 -16.98828125 108.24609375 C-19.51848068 111.11220831 -21.97730366 113.9705561 -24.3125 117 C-24.869375 117.66 -25.42625 118.32 -26 119 C-26.66 119 -27.32 119 -28 119 C-28.16910889 119.63695801 -28.33821777 120.27391602 -28.51245117 120.93017578 C-30 123 -30 123 -33.32543945 123.75341797 C-34.81544406 123.89483494 -36.30763281 124.01413303 -37.80078125 124.1171875 C-38.62910965 124.1889621 -39.45743805 124.26073669 -40.31086731 124.33468628 C-43.2059232 124.57796609 -46.10235379 124.78990049 -49 125 C-51.25832857 125.17444527 -53.51662813 125.34926653 -55.77490234 125.52441406 C-61.96390733 125.99480349 -68.15475999 126.4332558 -74.34692383 126.85986328 C-78.21925232 127.12719204 -82.09107341 127.40115661 -85.96289062 127.67578125 C-88.44788939 127.84934929 -90.93291454 128.02254016 -93.41796875 128.1953125 C-94.56387985 128.27653351 -95.70979095 128.35775452 -96.89042664 128.44143677 C-102.60995993 128.83162874 -108.2672318 129.08971741 -114 129 C-112.47920927 125.49172085 -110.4004327 123.04728354 -107.8125 120.25 C-107.00425781 119.36828125 -106.19601563 118.4865625 -105.36328125 117.578125 C-104.19345703 116.30195313 -104.19345703 116.30195313 -103 115 C-101.82838939 113.67100886 -100.66126608 112.3380396 -99.5 111 C-96.00240508 106.97694482 -92.41522811 103.03769044 -88.8203125 99.1015625 C-86.96323333 97.13276579 -86.96323333 97.13276579 -86 95 C-85.34 95 -84.68 95 -84 95 C-83.7421875 94.43796875 -83.484375 93.8759375 -83.21875 93.296875 C-81.85830223 90.73295421 -80.27211038 88.54773635 -78.5 86.25 C-77.8915625 85.45078125 -77.283125 84.6515625 -76.65625 83.828125 C-76.1096875 83.22484375 -75.563125 82.6215625 -75 82 C-74.34 82 -73.68 82 -73 82 C-72.73662842 81.41444336 -72.47325684 80.82888672 -72.2019043 80.22558594 C-70.94677217 77.90143714 -69.59314046 76.29392262 -67.76953125 74.390625 C-67.13080078 73.71773438 -66.49207031 73.04484375 -65.83398438 72.3515625 C-65.16689453 71.65804687 -64.49980469 70.96453125 -63.8125 70.25 C-59.31926808 65.54663684 -54.91018546 60.80403746 -50.6496582 55.88818359 C-47.75290926 52.57259142 -44.74550838 49.35935473 -41.74414062 46.13867188 C-39.61359177 43.83432297 -37.7460552 41.6190828 -36 39 C-35.34 39 -34.68 39 -34 39 C-33.67708984 38.19949219 -33.67708984 38.19949219 -33.34765625 37.3828125 C-31.50271677 34.1207456 -29.00237817 31.57342832 -26.4375 28.875 C-25.35631388 27.72047984 -24.27558972 26.5655269 -23.1953125 25.41015625 C-22.6580957 24.83797363 -22.12087891 24.26579102 -21.56738281 23.67626953 C-19.2918955 21.24270319 -17.0486395 18.78231967 -14.8125 16.3125 C-14.09707031 15.52488281 -13.38164063 14.73726562 -12.64453125 13.92578125 C-10.94674047 12.09410576 -10.94674047 12.09410576 -10 10 C-9.34 10 -8.68 10 -8 10 C-7.79375 9.46375 -7.5875 8.9275 -7.375 8.375 C-5.42003056 4.9982346 -2.81776305 2.69525161 0 0 Z " fill="#FBFBFB" transform="translate(121,116)"/>
<path d="M0 0 C0.66 0.66 1.32 1.32 2 2 C-3.94 7.94 -9.88 13.88 -16 20 C-16 17 -16 17 -14.28515625 15.02734375 C-13.55167969 14.33769531 -12.81820312 13.64804688 -12.0625 12.9375 C-9.13565586 10.26299207 -9.13565586 10.26299207 -7 7 C-6.34 7 -5.68 7 -5 7 C-4.731875 6.401875 -4.46375 5.80375 -4.1875 5.1875 C-3.01506533 3.02775192 -1.80630718 1.64209744 0 0 Z " fill="#EEEEEE" transform="translate(92,148)"/>
<path d="M0 0 C0.66 0.99 1.32 1.98 2 3 C0.37744772 4.48185125 -1.24811888 5.96040256 -2.875 7.4375 C-4.23238281 8.67306641 -4.23238281 8.67306641 -5.6171875 9.93359375 C-8 12 -8 12 -10 13 C-8.48446596 9.52224821 -6.4226544 7.0442016 -3.875 4.25 C-3.15054688 3.45078125 -2.42609375 2.6515625 -1.6796875 1.828125 C-0.84824219 0.92320313 -0.84824219 0.92320313 0 0 Z " fill="#EDEDED" transform="translate(200,23)"/>
</svg>
